<?xml version="1.0" encoding="UTF-8" standalone="no"?>
<!-- Created with Inkscape (http://www.inkscape.org/) -->

<svg
   width="1715"
   height="322"
   viewBox="0 0 1715 322"
   version="1.1"
   id="svg5"
   sodipodi:docname="Voyager_Banner.svg"
   inkscape:version="1.2.1 (9c6d41e410, 2022-07-14)"
   inkscape:export-filename="..\Exported Images\Discohook_Github_README_Thumbnail.png.png"
   inkscape:export-xdpi="96"
   inkscape:export-ydpi="96"
   xml:space="preserve"
   xmlns:inkscape="http://www.inkscape.org/namespaces/inkscape"
   xmlns:sodipodi="http://sodipodi.sourceforge.net/DTD/sodipodi-0.dtd"
   xmlns:xlink="http://www.w3.org/1999/xlink"
   xmlns="http://www.w3.org/2000/svg"
   xmlns:svg="http://www.w3.org/2000/svg"><sodipodi:namedview
     id="namedview26"
     pagecolor="#505050"
     bordercolor="#ffffff"
     borderopacity="1"
     inkscape:showpageshadow="0"
     inkscape:pageopacity="0"
     inkscape:pagecheckerboard="1"
     inkscape:deskcolor="#505050"
     showgrid="false"
     inkscape:zoom="0.69854227"
     inkscape:cx="857.5"
     inkscape:cy="160.33389"
     inkscape:window-width="1920"
     inkscape:window-height="1017"
     inkscape:window-x="-8"
     inkscape:window-y="-8"
     inkscape:window-maximized="1"
     inkscape:current-layer="layer2" /><defs
     id="defs2"><inkscape:path-effect
       effect="skeletal"
       id="path-effect8270"
       is_visible="true"
       lpeversion="1"
       pattern="M 0,18.867925 C 0,8.4528302 8.4528302,0 18.867925,0 c 10.415094,0 18.867924,8.4528302 18.867924,18.867925 0,10.415094 -8.45283,18.867924 -18.867924,18.867924 C 8.4528302,37.735849 0,29.283019 0,18.867925 Z"
       copytype="single_stretched"
       prop_scale="0.46812073"
       scale_y_rel="false"
       spacing="0"
       normal_offset="0"
       tang_offset="0"
       prop_units="false"
       vertical_pattern="false"
       hide_knot="false"
       fuse_tolerance="0" /><inkscape:path-effect
       effect="spiro"
       id="path-effect8203"
       is_visible="true"
       lpeversion="1" /><linearGradient
       id="linearGradient6586"><stop
         style="stop-color:#5865f2;stop-opacity:1;"
         offset="0"
         id="stop6584" /><stop
         style="stop-color:#542ff1;stop-opacity:1;"
         offset="1"
         id="stop8772" /></linearGradient><linearGradient
       id="linearGradient5788"><stop
         style="stop-color:#00ffff;stop-opacity:1;"
         offset="0"
         id="stop5786" /></linearGradient><linearGradient
       xlink:href="#linearGradient6586"
       id="linearGradient6588"
       x1="0"
       y1="0"
       x2="512"
       y2="512"
       gradientUnits="userSpaceOnUse" /><style
       id="style130">.cls-1{fill:#fff;}</style><style
       id="style130-3">.cls-1{fill:#fff;}</style><style
       id="style130-1">.cls-1{fill:#fff;}</style><style
       id="style130-5">.cls-1{fill:#fff;}</style><style
       id="style130-2">.cls-1{fill:#fff;}</style><style
       id="style130-6">.cls-1{fill:#fff;}</style></defs><g
     inkscape:groupmode="layer"
     id="layer2"
     inkscape:label="Thumbnail"><rect
       style="fill:#141414;fill-opacity:1;stroke:#ffffff;stroke-width:11.9508;stroke-linecap:round;stroke-linejoin:miter;stroke-dasharray:none;stroke-opacity:1"
       id="rect441"
       width="1703.0492"
       height="310.04919"
       x="5.9754028"
       y="5.9754028"
       ry="0"
       inkscape:label="Background"
       rx="0"
       sodipodi:insensitive="true" /><g
       id="g9201"
       transform="translate(-105.55716)"
       inkscape:label="Voyager_Full_Logo"
       sodipodi:insensitive="true"><g
         id="g1820"
         transform="matrix(0.32064752,0.05653881,-0.05653881,0.32064752,1157.4436,36.56091)"
         style="display:inline"
         inkscape:label="Voyager_Logo"
         inkscape:export-filename="Voyager_Icon.svg"
         inkscape:export-xdpi="96"
         inkscape:export-ydpi="96"><rect
           style="display:inline;fill:#141414;fill-opacity:1;stroke:#ffffff;stroke-width:13.1821;stroke-linecap:round;stroke-linejoin:round;stroke-dasharray:none;stroke-opacity:1"
           id="rect10314"
           width="449.94775"
           height="449.94775"
           x="71.590836"
           y="-17.317034"
           ry="70.857254"
           transform="matrix(1.073688,0,0,1.073688,-40.253163,116.08024)"
           inkscape:label="Voyager_Logo_BG" /><g
           id="g1790"
           transform="matrix(0,-2.1410355,2.1410355,0,-287.93932,983.62839)"><circle
             style="fill:#ffffff;stroke:#ffffff;stroke-width:1.72873;stroke-linecap:round;stroke-linejoin:round"
             id="path352"
             cx="256"
             cy="316.46103"
             r="14.135636" /><rect
             style="fill:#ffffff;stroke:none;stroke-width:4.26273;stroke-linecap:round;stroke-linejoin:round"
             id="rect406"
             width="15"
             height="83.200867"
             x="248.5"
             y="233.26018"
             ry="7.5" /><path
             id="circle455"
             style="fill:none;stroke:#ffffff;stroke-width:15;stroke-linecap:round;stroke-linejoin:round;stroke-dasharray:none"
             d="m 256.05178,240.69016 c -7.8069,0 -14.87471,-3.16437 -19.99081,-8.28046 -5.11609,-5.1161 -8.28046,-12.18391 -8.28046,-19.99081 0,-7.80689 3.16437,-14.87471 8.28046,-19.99081 5.1161,-5.1161 12.18391,-8.28047 19.99081,-8.28047 7.80689,0 14.87471,3.16437 19.99081,8.28047" /></g><g
           id="g1798"
           transform="matrix(1.8541911,1.0705177,-1.0705177,1.8541911,30.604762,-428.10199)"><circle
             style="fill:#ffffff;stroke:#ffffff;stroke-width:1.72873;stroke-linecap:round;stroke-linejoin:round"
             id="circle1792"
             cx="256.79657"
             cy="317.50772"
             r="14.135636" /><rect
             style="fill:#ffffff;stroke:none;stroke-width:4.26273;stroke-linecap:round;stroke-linejoin:round"
             id="rect1794"
             width="15"
             height="83.200867"
             x="249.29659"
             y="234.30688"
             ry="7.5" /><path
             id="path1796"
             style="fill:none;stroke:#ffffff;stroke-width:15;stroke-linecap:round;stroke-linejoin:round;stroke-dasharray:none"
             d="m 256.84836,241.73686 c -7.8069,0 -14.87471,-3.16437 -19.99081,-8.28046 -5.11609,-5.1161 -8.28046,-12.18391 -8.28046,-19.99081 0,-7.80689 3.16437,-14.87471 8.28046,-19.99081 5.1161,-5.1161 12.18391,-8.28047 19.99081,-8.28047 7.80689,0 14.87471,3.16437 19.99081,8.28047" /></g><g
           id="g1806"
           transform="matrix(-1.8541911,1.0705177,-1.0705177,-1.8541911,1093.0707,555.90501)"><circle
             style="fill:#ffffff;stroke:#ffffff;stroke-width:1.72873;stroke-linecap:round;stroke-linejoin:round"
             id="circle1800"
             cx="256.30441"
             cy="317.26938"
             r="14.135636" /><rect
             style="display:inline;fill:#ffffff;stroke:none;stroke-width:4.26273;stroke-linecap:round;stroke-linejoin:round"
             id="rect1802"
             width="15"
             height="83.200867"
             x="248.80438"
             y="234.06857"
             ry="7.5" /><path
             id="path1804"
             style="fill:none;stroke:#ffffff;stroke-width:15;stroke-linecap:round;stroke-linejoin:round;stroke-dasharray:none"
             d="m 256.35614,241.49856 c -7.8069,0 -14.87471,-3.16437 -19.99081,-8.28046 -5.11609,-5.1161 -8.28046,-12.18391 -8.28046,-19.99081 0,-7.80689 3.16437,-14.87471 8.28046,-19.99081 5.1161,-5.1161 12.18391,-8.28047 19.99081,-8.28047 7.80689,0 14.87471,3.16437 19.99081,8.28047" /></g></g><text
         xml:space="preserve"
         style="font-style:normal;font-variant:normal;font-weight:bold;font-stretch:normal;font-size:127.841px;font-family:Arial;-inkscape-font-specification:'Arial, Bold';font-variant-ligatures:normal;font-variant-caps:normal;font-variant-numeric:normal;font-variant-east-asian:normal;fill:#5865f2;stroke:none;stroke-width:3.32919;stroke-linecap:round;stroke-linejoin:round;stroke-dasharray:none;stroke-opacity:0.514196"
         x="609.21503"
         y="193.30357"
         id="text1103"
         inkscape:label="Voyager_Text"><tspan
           sodipodi:role="line"
           id="tspan1101"
           x="609.21503"
           y="193.30357"
           style="font-style:normal;font-variant:normal;font-weight:bold;font-stretch:normal;font-size:127.841px;font-family:Arial;-inkscape-font-specification:'Arial, Bold';font-variant-ligatures:normal;font-variant-caps:normal;font-variant-numeric:normal;font-variant-east-asian:normal;fill:#ffffff;fill-opacity:1;stroke:none;stroke-width:3.32919;stroke-dasharray:none;stroke-opacity:0.514196">Voyager</tspan></text></g><g
       inkscape:label="Planet"
       id="layer1"
       transform="matrix(0.27849544,-0.12986455,0.12986455,0.27849544,1494.71,46.148238)"
       sodipodi:insensitive="true"><circle
         style="fill:#141414;fill-opacity:1;stroke:#ffffff;stroke-width:10;stroke-linecap:round;stroke-linejoin:round;stroke-dasharray:none"
         id="path389"
         cx="256"
         cy="256"
         r="124.54054" /><path
         id="circle1310"
         style="fill:#ffffff;fill-opacity:1;stroke:none;stroke-width:10.1379;stroke-linecap:round;stroke-linejoin:round;stroke-dasharray:none"
         d="m 374.38672,294.06055 a 124.54054,124.54054 0 0 1 -5.10156,13.67578 124.54054,124.54054 0 0 1 -2.33594,4.27734 A 256,62.270271 0 0 0 512,256 256,62.270271 0 0 0 367.20508,200.01367 a 124.54054,124.54054 0 0 1 1.3789,2.73828 124.54054,124.54054 0 0 1 2.47657,5.58789 124.54054,124.54054 0 0 1 2.19922,5.70313 124.54054,124.54054 0 0 1 1.30273,3.93945 A 181.0101,50.319408 0 0 1 437.00977,256 181.0101,50.319408 0 0 1 374.38672,294.06055 Z" /><path
         id="path1429"
         style="fill:#ffffff;fill-opacity:1;stroke:none;stroke-width:10.1379;stroke-linecap:round;stroke-linejoin:round;stroke-dasharray:none"
         d="m 137.61328,294.06055 a 124.54054,124.54054 0 0 0 5.10156,13.67578 124.54054,124.54054 0 0 0 2.33594,4.27734 256,62.270271 0 0 0 110.94922,6.25586 256,62.270271 0 0 0 110.94922,-6.25586 124.54054,124.54054 0 0 0 2.33594,-4.27734 124.54054,124.54054 0 0 0 5.10156,-13.67578 A 181.0101,50.319408 0 0 1 256,306.32031 181.0101,50.319408 0 0 1 137.61328,294.06055 Z" /><path
         id="path1427"
         style="fill:#ffffff;fill-opacity:1;stroke:none;stroke-width:10.1379;stroke-linecap:round;stroke-linejoin:round;stroke-dasharray:none"
         d="M 145.05078,199.98633 A 256,62.270271 0 0 0 0,256 256,62.270271 0 0 0 145.05078,312.01367 124.54054,124.54054 0 0 1 142.71484,307.73633 124.54054,124.54054 0 0 1 137.61328,294.06055 181.0101,50.319408 0 0 1 74.990234,256 a 181.0101,50.319408 0 0 1 62.623046,-38.06055 124.54054,124.54054 0 0 1 5.10156,-13.67578 124.54054,124.54054 0 0 1 2.33594,-4.27734 z" /></g><g
       id="g1392"
       inkscape:label="Star"><path
         sodipodi:type="star"
         style="fill:none;fill-opacity:1;stroke:#ffffff;stroke-width:7.15749;stroke-linecap:round;stroke-linejoin:round;stroke-dasharray:none;stroke-opacity:1"
         id="path8465"
         inkscape:flatsided="false"
         sodipodi:sides="5"
         sodipodi:cx="227.08237"
         sodipodi:cy="-224.44188"
         sodipodi:r1="34.855503"
         sodipodi:r2="17.427753"
         sodipodi:arg1="0.52359878"
         sodipodi:arg2="1.1519173"
         inkscape:rounded="0"
         inkscape:randomized="0"
         d="m 257.26812,-207.01413 -23.09725,-1.5067 -14.33537,18.17278 -5.70448,-22.43239 -21.71321,-8.01805 19.57168,-12.35727 0.91587,-23.12821 17.80044,14.79518 22.27925,-6.27597 -8.5704,21.50118 z"
         inkscape:transform-center-x="0.9386311"
         inkscape:transform-center-y="0.47190244"
         inkscape:label="Star"
         transform="matrix(0.41914132,0,0,0.41914132,539.85883,146.01046)" /><path
         sodipodi:type="star"
         style="fill:none;fill-opacity:1;stroke:#ffffff;stroke-width:7.15749;stroke-linecap:round;stroke-linejoin:round;stroke-dasharray:none;stroke-opacity:1"
         id="path8467"
         inkscape:flatsided="false"
         sodipodi:sides="5"
         sodipodi:cx="227.08237"
         sodipodi:cy="-224.44188"
         sodipodi:r1="34.855503"
         sodipodi:r2="17.427753"
         sodipodi:arg1="0.52359878"
         sodipodi:arg2="1.1519173"
         inkscape:rounded="0"
         inkscape:randomized="0"
         d="m 257.26812,-207.01413 -23.09725,-1.5067 -14.33537,18.17278 -5.70448,-22.43239 -21.71321,-8.01805 19.57168,-12.35727 0.91587,-23.12821 17.80044,14.79518 22.27925,-6.27597 -8.5704,21.50118 z"
         inkscape:transform-center-x="0.9386311"
         inkscape:transform-center-y="0.47190244"
         inkscape:label="Star"
         transform="matrix(0.41914132,0,0,0.41914132,674.99789,371.49285)" /><path
         sodipodi:type="star"
         style="fill:none;fill-opacity:1;stroke:#ffffff;stroke-width:7.15749;stroke-linecap:round;stroke-linejoin:round;stroke-dasharray:none;stroke-opacity:1"
         id="path8469"
         inkscape:flatsided="false"
         sodipodi:sides="5"
         sodipodi:cx="227.08237"
         sodipodi:cy="-224.44188"
         sodipodi:r1="34.855503"
         sodipodi:r2="17.427753"
         sodipodi:arg1="0.52359878"
         sodipodi:arg2="1.1519173"
         inkscape:rounded="0"
         inkscape:randomized="0"
         d="m 257.26812,-207.01413 -23.09725,-1.5067 -14.33537,18.17278 -5.70448,-22.43239 -21.71321,-8.01805 19.57168,-12.35727 0.91587,-23.12821 17.80044,14.79518 22.27925,-6.27597 -8.5704,21.50118 z"
         inkscape:transform-center-x="0.9386311"
         inkscape:transform-center-y="0.47190244"
         inkscape:label="Star"
         transform="matrix(0.41914132,0,0,0.41914132,880.80088,149.52597)" /><path
         sodipodi:type="star"
         style="fill:none;fill-opacity:1;stroke:#ffffff;stroke-width:7.15749;stroke-linecap:round;stroke-linejoin:round;stroke-dasharray:none;stroke-opacity:1"
         id="path8471"
         inkscape:flatsided="false"
         sodipodi:sides="5"
         sodipodi:cx="227.08237"
         sodipodi:cy="-224.44188"
         sodipodi:r1="34.855503"
         sodipodi:r2="17.427753"
         sodipodi:arg1="0.52359878"
         sodipodi:arg2="1.1519173"
         inkscape:rounded="0"
         inkscape:randomized="0"
         d="m 257.26812,-207.01413 -23.09725,-1.5067 -14.33537,18.17278 -5.70448,-22.43239 -21.71321,-8.01805 19.57168,-12.35727 0.91587,-23.12821 17.80044,14.79518 22.27925,-6.27597 -8.5704,21.50118 z"
         inkscape:transform-center-x="0.9386311"
         inkscape:transform-center-y="0.47190244"
         inkscape:label="Star"
         transform="matrix(0.41914132,0,0,0.41914132,896.78375,371.7337)" /><path
         sodipodi:type="star"
         style="fill:none;fill-opacity:1;stroke:#ffffff;stroke-width:7.15749;stroke-linecap:round;stroke-linejoin:round;stroke-dasharray:none;stroke-opacity:1"
         id="path8473"
         inkscape:flatsided="false"
         sodipodi:sides="5"
         sodipodi:cx="227.08237"
         sodipodi:cy="-224.44188"
         sodipodi:r1="34.855503"
         sodipodi:r2="17.427753"
         sodipodi:arg1="0.52359878"
         sodipodi:arg2="1.1519173"
         inkscape:rounded="0"
         inkscape:randomized="0"
         d="m 257.26812,-207.01413 -23.09725,-1.5067 -14.33537,18.17278 -5.70448,-22.43239 -21.71321,-8.01805 19.57168,-12.35727 0.91587,-23.12821 17.80044,14.79518 22.27925,-6.27597 -8.5704,21.50118 z"
         inkscape:transform-center-x="0.9386311"
         inkscape:transform-center-y="0.47190244"
         inkscape:label="Star"
         transform="matrix(0.41914132,0,0,0.41914132,412.99368,363.57662)" /><path
         sodipodi:type="star"
         style="fill:none;fill-opacity:1;stroke:#ffffff;stroke-width:7.15749;stroke-linecap:round;stroke-linejoin:round;stroke-dasharray:none;stroke-opacity:1"
         id="path8489"
         inkscape:flatsided="false"
         sodipodi:sides="5"
         sodipodi:cx="227.08237"
         sodipodi:cy="-224.44188"
         sodipodi:r1="34.855503"
         sodipodi:r2="17.427753"
         sodipodi:arg1="0.52359878"
         sodipodi:arg2="1.1519173"
         inkscape:rounded="0"
         inkscape:randomized="0"
         d="m 257.26812,-207.01413 -23.09725,-1.5067 -14.33537,18.17278 -5.70448,-22.43239 -21.71321,-8.01805 19.57168,-12.35727 0.91587,-23.12821 17.80044,14.79518 22.27925,-6.27597 -8.5704,21.50118 z"
         inkscape:transform-center-x="0.9386311"
         inkscape:transform-center-y="0.47190244"
         inkscape:label="Star"
         transform="matrix(0.41914132,0,0,0.41914132,73.182925,268.5368)" /><path
         sodipodi:type="star"
         style="fill:none;fill-opacity:1;stroke:#ffffff;stroke-width:7.15749;stroke-linecap:round;stroke-linejoin:round;stroke-dasharray:none;stroke-opacity:1"
         id="path8787"
         inkscape:flatsided="false"
         sodipodi:sides="5"
         sodipodi:cx="227.08237"
         sodipodi:cy="-224.44188"
         sodipodi:r1="34.855503"
         sodipodi:r2="17.427753"
         sodipodi:arg1="0.52359878"
         sodipodi:arg2="1.1519173"
         inkscape:rounded="0"
         inkscape:randomized="0"
         d="m 257.26812,-207.01413 -23.09725,-1.5067 -14.33537,18.17278 -5.70448,-22.43239 -21.71321,-8.01805 19.57168,-12.35727 0.91587,-23.12821 17.80044,14.79518 22.27925,-6.27597 -8.5704,21.50118 z"
         inkscape:transform-center-x="0.9386311"
         inkscape:transform-center-y="0.47190244"
         inkscape:label="Star"
         transform="matrix(0.41914132,0,0,0.41914132,1262.5079,342.11152)" /><path
         sodipodi:type="star"
         style="fill:none;fill-opacity:1;stroke:#ffffff;stroke-width:7.15749;stroke-linecap:round;stroke-linejoin:round;stroke-dasharray:none;stroke-opacity:1"
         id="path8801"
         inkscape:flatsided="false"
         sodipodi:sides="5"
         sodipodi:cx="227.08237"
         sodipodi:cy="-224.44188"
         sodipodi:r1="34.855503"
         sodipodi:r2="17.427753"
         sodipodi:arg1="0.52359878"
         sodipodi:arg2="1.1519173"
         inkscape:rounded="0"
         inkscape:randomized="0"
         d="m 257.26812,-207.01413 -23.09725,-1.5067 -14.33537,18.17278 -5.70448,-22.43239 -21.71321,-8.01805 19.57168,-12.35727 0.91587,-23.12821 17.80044,14.79518 22.27925,-6.27597 -8.5704,21.50118 z"
         inkscape:transform-center-x="0.9386311"
         inkscape:transform-center-y="0.47190244"
         inkscape:label="Star"
         transform="matrix(0.41914132,0,0,0.41914132,1335.4833,191.05165)" /><path
         sodipodi:type="star"
         style="fill:none;fill-opacity:1;stroke:#ffffff;stroke-width:7.15749;stroke-linecap:round;stroke-linejoin:round;stroke-dasharray:none;stroke-opacity:1"
         id="path8821"
         inkscape:flatsided="false"
         sodipodi:sides="5"
         sodipodi:cx="227.08237"
         sodipodi:cy="-224.44188"
         sodipodi:r1="34.855503"
         sodipodi:r2="17.427753"
         sodipodi:arg1="0.52359878"
         sodipodi:arg2="1.1519173"
         inkscape:rounded="0"
         inkscape:randomized="0"
         d="m 257.26812,-207.01413 -23.09725,-1.5067 -14.33537,18.17278 -5.70448,-22.43239 -21.71321,-8.01805 19.57168,-12.35727 0.91587,-23.12821 17.80044,14.79518 22.27925,-6.27597 -8.5704,21.50118 z"
         inkscape:transform-center-x="0.9386311"
         inkscape:transform-center-y="0.47190244"
         inkscape:label="Star"
         transform="matrix(0.41914132,0,0,0.41914132,188.81546,362.97608)" /><path
         sodipodi:type="star"
         style="fill:none;fill-opacity:1;stroke:#ffffff;stroke-width:7.15749;stroke-linecap:round;stroke-linejoin:round;stroke-dasharray:none;stroke-opacity:1"
         id="path8823"
         inkscape:flatsided="false"
         sodipodi:sides="5"
         sodipodi:cx="227.08237"
         sodipodi:cy="-224.44188"
         sodipodi:r1="34.855503"
         sodipodi:r2="17.427753"
         sodipodi:arg1="0.52359878"
         sodipodi:arg2="1.1519173"
         inkscape:rounded="0"
         inkscape:randomized="0"
         d="m 257.26812,-207.01413 -23.09725,-1.5067 -14.33537,18.17278 -5.70448,-22.43239 -21.71321,-8.01805 19.57168,-12.35727 0.91587,-23.12821 17.80044,14.79518 22.27925,-6.27597 -8.5704,21.50118 z"
         inkscape:transform-center-x="0.9386311"
         inkscape:transform-center-y="0.47190244"
         inkscape:label="Star"
         transform="matrix(0.41914132,0,0,0.41914132,151.83314,165.59153)" /><path
         sodipodi:type="star"
         style="fill:none;fill-opacity:1;stroke:#ffffff;stroke-width:7.15749;stroke-linecap:round;stroke-linejoin:round;stroke-dasharray:none;stroke-opacity:1"
         id="path8829"
         inkscape:flatsided="false"
         sodipodi:sides="5"
         sodipodi:cx="227.08237"
         sodipodi:cy="-224.44188"
         sodipodi:r1="34.855503"
         sodipodi:r2="17.427753"
         sodipodi:arg1="0.52359878"
         sodipodi:arg2="1.1519173"
         inkscape:rounded="0"
         inkscape:randomized="0"
         d="m 257.26812,-207.01413 -23.09725,-1.5067 -14.33537,18.17278 -5.70448,-22.43239 -21.71321,-8.01805 19.57168,-12.35727 0.91587,-23.12821 17.80044,14.79518 22.27925,-6.27597 -8.5704,21.50118 z"
         inkscape:transform-center-x="0.9386311"
         inkscape:transform-center-y="0.47190244"
         inkscape:label="Star"
         transform="matrix(0.41914132,0,0,0.41914132,272.18275,272.75409)" /><path
         sodipodi:type="star"
         style="fill:none;fill-opacity:1;stroke:#ffffff;stroke-width:7.15749;stroke-linecap:round;stroke-linejoin:round;stroke-dasharray:none;stroke-opacity:1"
         id="path9113"
         inkscape:flatsided="false"
         sodipodi:sides="5"
         sodipodi:cx="227.08237"
         sodipodi:cy="-224.44188"
         sodipodi:r1="34.855503"
         sodipodi:r2="17.427753"
         sodipodi:arg1="0.52359878"
         sodipodi:arg2="1.1519173"
         inkscape:rounded="0"
         inkscape:randomized="0"
         d="m 257.26812,-207.01413 -23.09725,-1.5067 -14.33537,18.17278 -5.70448,-22.43239 -21.71321,-8.01805 19.57168,-12.35727 0.91587,-23.12821 17.80044,14.79518 22.27925,-6.27597 -8.5704,21.50118 z"
         inkscape:transform-center-x="0.9386311"
         inkscape:transform-center-y="0.47190244"
         inkscape:label="Star"
         transform="matrix(0.41914132,0,0,0.41914132,-27.179262,199.69533)" /><path
         sodipodi:type="star"
         style="fill:none;fill-opacity:1;stroke:#ffffff;stroke-width:7.15749;stroke-linecap:round;stroke-linejoin:round;stroke-dasharray:none;stroke-opacity:1"
         id="path9115"
         inkscape:flatsided="false"
         sodipodi:sides="5"
         sodipodi:cx="227.08237"
         sodipodi:cy="-224.44188"
         sodipodi:r1="34.855503"
         sodipodi:r2="17.427753"
         sodipodi:arg1="0.52359878"
         sodipodi:arg2="1.1519173"
         inkscape:rounded="0"
         inkscape:randomized="0"
         d="m 257.26812,-207.01413 -23.09725,-1.5067 -14.33537,18.17278 -5.70448,-22.43239 -21.71321,-8.01805 19.57168,-12.35727 0.91587,-23.12821 17.80044,14.79518 22.27925,-6.27597 -8.5704,21.50118 z"
         inkscape:transform-center-x="0.9386311"
         inkscape:transform-center-y="0.47190244"
         inkscape:label="Star"
         transform="matrix(0.41914132,0,0,0.41914132,-19.369091,356.82007)" /><path
         sodipodi:type="star"
         style="fill:none;fill-opacity:1;stroke:#ffffff;stroke-width:7.15749;stroke-linecap:round;stroke-linejoin:round;stroke-dasharray:none;stroke-opacity:1"
         id="path1566"
         inkscape:flatsided="false"
         sodipodi:sides="5"
         sodipodi:cx="227.08237"
         sodipodi:cy="-224.44188"
         sodipodi:r1="34.855503"
         sodipodi:r2="17.427753"
         sodipodi:arg1="0.52359878"
         sodipodi:arg2="1.1519173"
         inkscape:rounded="0"
         inkscape:randomized="0"
         d="m 257.26812,-207.01413 -23.09725,-1.5067 -14.33537,18.17278 -5.70448,-22.43239 -21.71321,-8.01805 19.57168,-12.35727 0.91587,-23.12821 17.80044,14.79518 22.27925,-6.27597 -8.5704,21.50118 z"
         inkscape:transform-center-x="0.9386311"
         inkscape:transform-center-y="0.47190244"
         inkscape:label="Star"
         transform="matrix(0.41914132,0,0,0.41914132,1471.6539,355.50177)" /><path
         sodipodi:type="star"
         style="fill:none;fill-opacity:1;stroke:#ffffff;stroke-width:7.15749;stroke-linecap:round;stroke-linejoin:round;stroke-dasharray:none;stroke-opacity:1"
         id="path1568"
         inkscape:flatsided="false"
         sodipodi:sides="5"
         sodipodi:cx="227.08237"
         sodipodi:cy="-224.44188"
         sodipodi:r1="34.855503"
         sodipodi:r2="17.427753"
         sodipodi:arg1="0.52359878"
         sodipodi:arg2="1.1519173"
         inkscape:rounded="0"
         inkscape:randomized="0"
         d="m 257.26812,-207.01413 -23.09725,-1.5067 -14.33537,18.17278 -5.70448,-22.43239 -21.71321,-8.01805 19.57168,-12.35727 0.91587,-23.12821 17.80044,14.79518 22.27925,-6.27597 -8.5704,21.50118 z"
         inkscape:transform-center-x="0.9386311"
         inkscape:transform-center-y="0.47190244"
         inkscape:label="Star"
         transform="matrix(0.41914132,0,0,0.41914132,1178.5521,247.94593)" /><path
         sodipodi:type="star"
         style="fill:none;fill-opacity:1;stroke:#ffffff;stroke-width:7.15749;stroke-linecap:round;stroke-linejoin:round;stroke-dasharray:none;stroke-opacity:1"
         id="path1830"
         inkscape:flatsided="false"
         sodipodi:sides="5"
         sodipodi:cx="227.08237"
         sodipodi:cy="-224.44188"
         sodipodi:r1="34.855503"
         sodipodi:r2="17.427753"
         sodipodi:arg1="0.52359878"
         sodipodi:arg2="1.1519173"
         inkscape:rounded="0"
         inkscape:randomized="0"
         d="m 257.26812,-207.01413 -23.09725,-1.5067 -14.33537,18.17278 -5.70448,-22.43239 -21.71321,-8.01805 19.57168,-12.35727 0.91587,-23.12821 17.80044,14.79518 22.27925,-6.27597 -8.5704,21.50118 z"
         inkscape:transform-center-x="0.9386311"
         inkscape:transform-center-y="0.47190244"
         inkscape:label="Star"
         transform="matrix(0.41914132,0,0,0.41914132,1403.7792,285.23034)" /></g><g
       id="g1414"
       inkscape:label="Far_Away_Stars"><circle
         style="fill:#ffffff;fill-opacity:1;stroke:none;stroke-width:1.26239;stroke-linecap:round;stroke-linejoin:round;stroke-dasharray:none;stroke-opacity:1"
         id="circle8475"
         cx="800.40417"
         cy="57.668068"
         inkscape:label="Far_Away_Star"
         r="5" /><circle
         style="fill:#ffffff;fill-opacity:1;stroke:none;stroke-width:1.26239;stroke-linecap:round;stroke-linejoin:round;stroke-dasharray:none;stroke-opacity:1"
         id="circle8477"
         cx="887.21222"
         cy="275.09186"
         inkscape:label="Far_Away_Star"
         r="5" /><circle
         style="fill:#ffffff;fill-opacity:1;stroke:none;stroke-width:1.26239;stroke-linecap:round;stroke-linejoin:round;stroke-dasharray:none;stroke-opacity:1"
         id="circle8479"
         cx="627.6618"
         cy="283.28522"
         inkscape:label="Far_Away_Star"
         r="5" /><circle
         style="fill:#ffffff;fill-opacity:1;stroke:none;stroke-width:1.26239;stroke-linecap:round;stroke-linejoin:round;stroke-dasharray:none;stroke-opacity:1"
         id="circle8481"
         cx="1168.1005"
         cy="45.229305"
         inkscape:label="Far_Away_Star"
         r="5" /><circle
         style="fill:#ffffff;fill-opacity:1;stroke:none;stroke-width:1.26239;stroke-linecap:round;stroke-linejoin:round;stroke-dasharray:none;stroke-opacity:1"
         id="circle8497"
         cx="125.49148"
         cy="60.098923"
         inkscape:label="Far_Away_Star"
         r="5" /><circle
         style="fill:#ffffff;fill-opacity:1;stroke:none;stroke-width:1.26239;stroke-linecap:round;stroke-linejoin:round;stroke-dasharray:none;stroke-opacity:1"
         id="circle8505"
         cx="407.32001"
         cy="267.80981"
         inkscape:label="Far_Away_Star"
         r="5" /><circle
         style="fill:#ffffff;fill-opacity:1;stroke:none;stroke-width:1.26239;stroke-linecap:round;stroke-linejoin:round;stroke-dasharray:none;stroke-opacity:1"
         id="circle8513"
         cx="473.96933"
         cy="51.941841"
         inkscape:label="Far_Away_Star"
         r="5" /><circle
         style="fill:#ffffff;fill-opacity:1;stroke:none;stroke-width:1.26239;stroke-linecap:round;stroke-linejoin:round;stroke-dasharray:none;stroke-opacity:1"
         id="circle8785"
         cx="1249.427"
         cy="270.00177"
         inkscape:label="Far_Away_Star"
         r="5" /><circle
         style="fill:#ffffff;fill-opacity:1;stroke:none;stroke-width:1.26239;stroke-linecap:round;stroke-linejoin:round;stroke-dasharray:none;stroke-opacity:1"
         id="circle8795"
         cx="1450.0997"
         cy="272.7019"
         inkscape:label="Far_Away_Star"
         r="5" /><circle
         style="fill:#ffffff;fill-opacity:1;stroke:none;stroke-width:1.26239;stroke-linecap:round;stroke-linejoin:round;stroke-dasharray:none;stroke-opacity:1"
         id="circle8805"
         cx="1313.9973"
         cy="62.129066"
         inkscape:label="Far_Away_Star"
         r="5" /><circle
         style="fill:#ffffff;fill-opacity:1;stroke:none;stroke-width:1.26239;stroke-linecap:round;stroke-linejoin:round;stroke-dasharray:none;stroke-opacity:1"
         id="circle8807"
         cx="164.71318"
         cy="256.46869"
         inkscape:label="Far_Away_Star"
         r="5" /><circle
         style="fill:#ffffff;fill-opacity:1;stroke:none;stroke-width:1.26239;stroke-linecap:round;stroke-linejoin:round;stroke-dasharray:none;stroke-opacity:1"
         id="circle8825"
         cx="265.05191"
         cy="166.69197"
         inkscape:label="Far_Away_Star"
         r="5" /><circle
         style="fill:#ffffff;fill-opacity:1;stroke:none;stroke-width:1.26239;stroke-linecap:round;stroke-linejoin:round;stroke-dasharray:none;stroke-opacity:1"
         id="circle8831"
         cx="359.23462"
         cy="87.047394"
         inkscape:label="Far_Away_Star"
         r="5" /><circle
         style="fill:#ffffff;fill-opacity:1;stroke:none;stroke-width:1.26239;stroke-linecap:round;stroke-linejoin:round;stroke-dasharray:none;stroke-opacity:1"
         id="circle9039"
         cx="1485.7305"
         cy="42.317516"
         inkscape:label="Far_Away_Star"
         r="5" /><circle
         style="fill:#ffffff;fill-opacity:1;stroke:none;stroke-width:1.26239;stroke-linecap:round;stroke-linejoin:round;stroke-dasharray:none;stroke-opacity:1"
         id="circle9111"
         cx="456.48764"
         cy="181.21468"
         inkscape:label="Far_Away_Star"
         r="5" /><circle
         style="fill:#ffffff;fill-opacity:1;stroke:none;stroke-width:1.26239;stroke-linecap:round;stroke-linejoin:round;stroke-dasharray:none;stroke-opacity:1"
         id="circle9117"
         cx="63.054214"
         cy="175.93367"
         inkscape:label="Far_Away_Star"
         r="5" /><circle
         style="fill:#ffffff;fill-opacity:1;stroke:none;stroke-width:1.26239;stroke-linecap:round;stroke-linejoin:round;stroke-dasharray:none;stroke-opacity:1"
         id="circle1564"
         cx="1128.2302"
         cy="286.73328"
         inkscape:label="Far_Away_Star"
         r="5" /><circle
         style="fill:#ffffff;fill-opacity:1;stroke:none;stroke-width:1.26239;stroke-linecap:round;stroke-linejoin:round;stroke-dasharray:none;stroke-opacity:1"
         id="circle1582"
         cx="1393.3677"
         cy="167.3575"
         inkscape:label="Far_Away_Star"
         r="5" /><circle
         style="fill:#ffffff;fill-opacity:1;stroke:none;stroke-width:1.26239;stroke-linecap:round;stroke-linejoin:round;stroke-dasharray:none;stroke-opacity:1"
         id="circle922"
         cx="1609.1453"
         cy="184.4807"
         inkscape:label="Far_Away_Star"
         r="5" /><circle
         style="fill:#ffffff;fill-opacity:1;stroke:none;stroke-width:1.26239;stroke-linecap:round;stroke-linejoin:round;stroke-dasharray:none;stroke-opacity:1"
         id="circle709"
         cx="1650.6603"
         cy="266.07919"
         inkscape:label="Far_Away_Star"
         r="5" /></g></g></svg>
