<?xml version="1.0" encoding="UTF-8" standalone="no"?>
<!-- Created with Inkscape (http://www.inkscape.org/) -->

<svg
   width="178.98828"
   height="178.98822"
   viewBox="0 0 178.98828 178.98822"
   version="1.1"
   id="svg5"
   sodipodi:docname="Voyager_Github_README_Thumbnail.svg"
   inkscape:version="1.2.1 (9c6d41e410, 2022-07-14)"
   inkscape:export-filename="..\Exported Images\Discohook_Github_README_Thumbnail.png.png"
   inkscape:export-xdpi="96"
   inkscape:export-ydpi="96"
   xmlns:inkscape="http://www.inkscape.org/namespaces/inkscape"
   xmlns:sodipodi="http://sodipodi.sourceforge.net/DTD/sodipodi-0.dtd"
   xmlns="http://www.w3.org/2000/svg"
   xmlns:svg="http://www.w3.org/2000/svg">
  <sodipodi:namedview
     id="namedview26"
     pagecolor="#505050"
     bordercolor="#ffffff"
     borderopacity="1"
     inkscape:showpageshadow="0"
     inkscape:pageopacity="0"
     inkscape:pagecheckerboard="1"
     inkscape:deskcolor="#505050"
     showgrid="false"
     inkscape:zoom="0.69504373"
     inkscape:cx="857.5"
     inkscape:cy="161.14094"
     inkscape:window-width="1920"
     inkscape:window-height="1017"
     inkscape:window-x="-8"
     inkscape:window-y="-8"
     inkscape:window-maximized="1"
     inkscape:current-layer="layer2" />
  <defs
     id="defs2" />
  <g
     inkscape:groupmode="layer"
     id="layer2"
     inkscape:label="Thumbnail"
     transform="translate(-1176.6254,-71.505882)">
    <g
       id="g1820"
       transform="matrix(0.32064752,0.05653881,-0.05653881,0.32064752,1196.0955,36.56091)"
       style="display:inline"
       inkscape:label="Voyager_Logo"
       inkscape:export-filename="Voyager_Icon.svg"
       inkscape:export-xdpi="96"
       inkscape:export-ydpi="96">
      <rect
         style="display:inline;fill:#141414;fill-opacity:1;stroke:#ffffff;stroke-width:13.1821;stroke-linecap:round;stroke-linejoin:round;stroke-dasharray:none;stroke-opacity:1"
         id="rect10314"
         width="449.94775"
         height="449.94775"
         x="71.590836"
         y="-17.317034"
         ry="70.857254"
         transform="matrix(1.073688,0,0,1.073688,-40.253163,116.08024)"
         inkscape:label="Voyager_Logo_BG" />
      <g
         id="g1790"
         transform="matrix(0,-2.1410355,2.1410355,0,-287.93932,983.62839)">
        <circle
           style="fill:#ffffff;stroke:#ffffff;stroke-width:1.72873;stroke-linecap:round;stroke-linejoin:round"
           id="path352"
           cx="256"
           cy="316.46103"
           r="14.135636" />
        <rect
           style="fill:#ffffff;stroke:none;stroke-width:4.26273;stroke-linecap:round;stroke-linejoin:round"
           id="rect406"
           width="15"
           height="83.200867"
           x="248.5"
           y="233.26018"
           ry="7.5" />
        <path
           id="circle455"
           style="fill:none;stroke:#ffffff;stroke-width:15;stroke-linecap:round;stroke-linejoin:round;stroke-dasharray:none"
           d="m 256.05178,240.69016 c -7.8069,0 -14.87471,-3.16437 -19.99081,-8.28046 -5.11609,-5.1161 -8.28046,-12.18391 -8.28046,-19.99081 0,-7.80689 3.16437,-14.87471 8.28046,-19.99081 5.1161,-5.1161 12.18391,-8.28047 19.99081,-8.28047 7.80689,0 14.87471,3.16437 19.99081,8.28047" />
      </g>
      <g
         id="g1798"
         transform="matrix(1.8541911,1.0705177,-1.0705177,1.8541911,30.604762,-428.10199)">
        <circle
           style="fill:#ffffff;stroke:#ffffff;stroke-width:1.72873;stroke-linecap:round;stroke-linejoin:round"
           id="circle1792"
           cx="256.79657"
           cy="317.50772"
           r="14.135636" />
        <rect
           style="fill:#ffffff;stroke:none;stroke-width:4.26273;stroke-linecap:round;stroke-linejoin:round"
           id="rect1794"
           width="15"
           height="83.200867"
           x="249.29659"
           y="234.30688"
           ry="7.5" />
        <path
           id="path1796"
           style="fill:none;stroke:#ffffff;stroke-width:15;stroke-linecap:round;stroke-linejoin:round;stroke-dasharray:none"
           d="m 256.84836,241.73686 c -7.8069,0 -14.87471,-3.16437 -19.99081,-8.28046 -5.11609,-5.1161 -8.28046,-12.18391 -8.28046,-19.99081 0,-7.80689 3.16437,-14.87471 8.28046,-19.99081 5.1161,-5.1161 12.18391,-8.28047 19.99081,-8.28047 7.80689,0 14.87471,3.16437 19.99081,8.28047" />
      </g>
      <g
         id="g1806"
         transform="matrix(-1.8541911,1.0705177,-1.0705177,-1.8541911,1093.0707,555.90501)">
        <circle
           style="fill:#ffffff;stroke:#ffffff;stroke-width:1.72873;stroke-linecap:round;stroke-linejoin:round"
           id="circle1800"
           cx="256.30441"
           cy="317.26938"
           r="14.135636" />
        <rect
           style="display:inline;fill:#ffffff;stroke:none;stroke-width:4.26273;stroke-linecap:round;stroke-linejoin:round"
           id="rect1802"
           width="15"
           height="83.200867"
           x="248.80438"
           y="234.06857"
           ry="7.5" />
        <path
           id="path1804"
           style="fill:none;stroke:#ffffff;stroke-width:15;stroke-linecap:round;stroke-linejoin:round;stroke-dasharray:none"
           d="m 256.35614,241.49856 c -7.8069,0 -14.87471,-3.16437 -19.99081,-8.28046 -5.11609,-5.1161 -8.28046,-12.18391 -8.28046,-19.99081 0,-7.80689 3.16437,-14.87471 8.28046,-19.99081 5.1161,-5.1161 12.18391,-8.28047 19.99081,-8.28047 7.80689,0 14.87471,3.16437 19.99081,8.28047" />
      </g>
    </g>
  </g>
</svg>
